<svg width="100" height="76" viewBox="0 0 100 76" fill="none" xmlns="http://www.w3.org/2000/svg">
<g clip-path="url(#clip0_213_2728)">
<path d="M66.7023 43.7235C73.2742 43.7235 82.7828 42.3641 82.7828 34.5252C82.8023 33.9199 82.7477 33.3146 82.6203 32.7231L78.7063 15.674C77.8027 11.9226 77.0094 10.2208 70.4426 6.92814C65.3469 4.31515 54.2465 0 50.9633 0C47.9059 0 47.018 3.95161 43.3719 3.95161C39.8629 3.95161 37.257 1.00093 33.9734 1.00093C30.8215 1.00093 28.7676 3.15557 27.1812 7.58668C27.1812 7.58668 22.7633 20.0836 22.1957 21.8962C22.1058 22.2291 22.0668 22.5737 22.0801 22.9183C22.0801 27.776 41.15 43.7027 66.7023 43.7027M83.7918 37.707C84.7004 42.0221 84.7004 42.475 84.7004 43.0442C84.7004 50.4201 76.4316 54.5139 65.5625 54.5139C40.9977 54.5296 19.4797 40.0935 19.4797 30.5524C19.478 29.2243 19.7479 27.9099 20.2727 26.6905C11.4367 27.1332 0 28.7135 0 38.8399C0 55.4252 39.1852 75.8672 70.2117 75.8672C93.9988 75.8672 99.9984 65.0772 99.9984 56.5577C99.9984 49.8564 94.2195 42.2486 83.8023 37.707" fill="#EE0000"/>
<path d="M83.7926 37.7076C84.7012 42.0227 84.7012 42.4756 84.7012 43.0448C84.7012 50.4207 76.4324 54.5145 65.5633 54.5145C40.9984 54.5302 19.4805 40.0941 19.4805 30.553C19.4788 29.2249 19.7487 27.9105 20.2734 26.6911L22.1965 21.918C22.1087 22.244 22.0697 22.5814 22.0809 22.9189C22.0809 27.7766 41.1508 43.7033 66.7031 43.7033C73.275 43.7033 82.7836 42.3439 82.7836 34.5042C82.8031 33.8993 82.7484 33.2941 82.6211 32.7025L83.7926 37.7076Z" fill="black"/>
</g>
<defs>
<clipPath id="clip0_213_2728">
<rect width="100" height="76" fill="white"/>
</clipPath>
</defs>
</svg>
