<svg width="100" height="100" viewBox="0 0 100 100" fill="none" xmlns="http://www.w3.org/2000/svg">
<g clip-path="url(#clip0_213_2764)">
<path d="M50.0012 77.8187C65.3664 77.8187 77.8219 65.3625 77.8219 49.9973C77.8219 34.632 65.3664 22.1758 50.0012 22.1758C34.6359 22.1758 22.1797 34.632 22.1797 49.9973C22.1797 65.3625 34.6355 77.8187 50.0008 77.8187" fill="white"/>
<path d="M14.0189 36.327C11.9434 32.7319 9.50381 28.9589 6.70016 25.0078C2.31098 32.6084 0.000149093 41.2305 7.21423e-09 50.0074C-0.000149078 58.7842 2.31039 67.4064 6.69932 75.0071C11.0882 82.6078 17.4009 88.9191 25.0025 93.3064C32.6041 97.6937 41.2268 100.002 50.0037 100C54.6055 93.546 57.73 88.8923 59.3771 86.0395C62.5407 80.5598 66.6322 72.7146 71.6517 62.5039V62.498C69.4588 66.3001 66.3035 69.4577 62.503 71.6534C58.7026 73.8491 54.391 75.0054 50.0019 75.0061C45.6128 75.0067 41.3008 73.8517 37.4997 71.6572C33.6986 69.4627 30.5423 66.3061 28.3482 62.5047C21.531 49.7906 16.7546 41.0645 14.0189 36.327Z" fill="#229342"/>
<path d="M50.0031 99.9984C56.5694 99.9996 63.0715 98.707 69.1381 96.1947C75.2047 93.6823 80.7168 89.9994 85.3597 85.3562C90.0026 80.7131 93.6853 75.2007 96.1973 69.134C98.7093 63.0673 100.001 56.5651 100 49.9988C99.9981 41.2219 97.6859 32.6001 93.2957 25C83.8238 24.0664 76.8335 23.5996 72.3246 23.5996C67.2121 23.5996 59.7704 24.0664 49.9996 25L49.9941 25.0039C54.3834 25.0017 58.6958 26.1554 62.4976 28.3488C66.2995 30.5421 69.4568 33.698 71.652 37.4988C73.8472 41.2997 75.0029 45.6116 75.0029 50.0008C75.0028 54.3901 73.8469 58.702 71.6516 62.5027L50.0031 99.9984Z" fill="#FBC116"/>
<path d="M50.002 69.7949C60.9332 69.7949 69.7945 60.9336 69.7945 50.002C69.7945 39.0703 60.9332 30.209 50.0016 30.209C39.0707 30.209 30.209 39.0707 30.209 50.002C30.209 60.9332 39.0707 69.7949 50.002 69.7949Z" fill="#1A73E8"/>
<path d="M50.0012 25.0017H93.2969C88.9096 17.4 82.5983 11.0873 74.9975 6.69848C67.3966 2.30967 58.7743 -0.000593763 49.9973 1.14468e-07C41.2204 0.000593992 32.5983 2.31202 24.9981 6.70187C17.3979 11.0917 11.0874 17.4052 6.70117 25.0076L28.3492 62.5037L28.3551 62.5068C26.1588 58.7066 25.0018 54.3951 25.0006 50.0059C24.9993 45.6167 26.1537 41.3046 28.3477 37.5031C30.5418 33.7016 33.6981 30.5449 37.4992 28.3503C41.3004 26.1557 45.6124 25.0007 50.0016 25.0013L50.0012 25.0017Z" fill="#E33B2E"/>
</g>
<defs>
<clipPath id="clip0_213_2764">
<rect width="100" height="100" fill="white"/>
</clipPath>
</defs>
</svg>
